solid slab
  facet normal 0 0 -1
    outer loop
      vertex -0.29999999999999999 -0.29999999999999999 -0.29999999999999999
      vertex -0.29999999999999999 1 -0.29999999999999999
      vertex 12.866370614359173 1 -0.29999999999999999
    endloop
  endfacet
  facet normal 0 0 -1
    outer loop
      vertex -0.29999999999999999 -0.29999999999999999 -0.29999999999999999
      vertex 12.866370614359173 1 -0.29999999999999999
      vertex 12.866370614359173 -0.29999999999999999 -0.29999999999999999
    endloop
  endfacet
  facet normal 0 0 1
    outer loop
      vertex -0.29999999999999999 -0.29999999999999999 6.5831853071795861
      vertex 12.866370614359173 -0.29999999999999999 6.5831853071795861
      vertex 12.866370614359173 1 6.5831853071795861
    endloop
  endfacet
  facet normal 0 0 1
    outer loop
      vertex -0.29999999999999999 -0.29999999999999999 6.5831853071795861
      vertex 12.866370614359173 1 6.5831853071795861
      vertex -0.29999999999999999 1 6.5831853071795861
    endloop
  endfacet
  facet normal 0 -1 0
    outer loop
      vertex -0.29999999999999999 -0.29999999999999999 -0.29999999999999999
      vertex 12.866370614359173 -0.29999999999999999 -0.29999999999999999
      vertex 12.866370614359173 -0.29999999999999999 6.5831853071795861
    endloop
  endfacet
  facet normal 0 -1 0
    outer loop
      vertex -0.29999999999999999 -0.29999999999999999 -0.29999999999999999
      vertex 12.866370614359173 -0.29999999999999999 6.5831853071795861
      vertex -0.29999999999999999 -0.29999999999999999 6.5831853071795861
    endloop
  endfacet
  facet normal 0 1 0
    outer loop
      vertex -0.29999999999999999 1 -0.29999999999999999
      vertex -0.29999999999999999 1 6.5831853071795861
      vertex 12.866370614359173 1 6.5831853071795861
    endloop
  endfacet
  facet normal 0 1 0
    outer loop
      vertex -0.29999999999999999 1 -0.29999999999999999
      vertex 12.866370614359173 1 6.5831853071795861
      vertex 12.866370614359173 1 -0.29999999999999999
    endloop
  endfacet
  facet normal -1 0 0
    outer loop
      vertex -0.29999999999999999 -0.29999999999999999 -0.29999999999999999
      vertex -0.29999999999999999 -0.29999999999999999 6.5831853071795861
      vertex -0.29999999999999999 1 6.5831853071795861
    endloop
  endfacet
  facet normal -1 0 0
    outer loop
      vertex -0.29999999999999999 -0.29999999999999999 -0.29999999999999999
      vertex -0.29999999999999999 1 6.5831853071795861
      vertex -0.29999999999999999 1 -0.29999999999999999
    endloop
  endfacet
  facet normal 1 0 0
    outer loop
      vertex 12.866370614359173 -0.29999999999999999 -0.29999999999999999
      vertex 12.866370614359173 1 -0.29999999999999999
      vertex 12.866370614359173 1 6.5831853071795861
    endloop
  endfacet
  facet normal 1 0 0
    outer loop
      vertex 12.866370614359173 -0.29999999999999999 -0.29999999999999999
      vertex 12.866370614359173 1 6.5831853071795861
      vertex 12.866370614359173 -0.29999999999999999 6.5831853071795861
    endloop
  endfacet
endsolid slab
