solid slab
  facet normal 0 0 -1
    outer loop
      vertex -0.29999999999999999 3 -0.29999999999999999
      vertex -0.29999999999999999 4.2999999999999998 -0.29999999999999999
      vertex 12.866370614359173 4.2999999999999998 -0.29999999999999999
    endloop
  endfacet
  facet normal 0 0 -1
    outer loop
      vertex -0.29999999999999999 3 -0.29999999999999999
      vertex 12.866370614359173 4.2999999999999998 -0.29999999999999999
      vertex 12.866370614359173 3 -0.29999999999999999
    endloop
  endfacet
  facet normal 0 0 1
    outer loop
      vertex -0.29999999999999999 3 6.5831853071795861
      vertex 12.866370614359173 3 6.5831853071795861
      vertex 12.866370614359173 4.2999999999999998 6.5831853071795861
    endloop
  endfacet
  facet normal 0 0 1
    outer loop
      vertex -0.29999999999999999 3 6.5831853071795861
      vertex 12.866370614359173 4.2999999999999998 6.5831853071795861
      vertex -0.29999999999999999 4.2999999999999998 6.5831853071795861
    endloop
  endfacet
  facet normal 0 -1 0
    outer loop
      vertex -0.29999999999999999 3 -0.29999999999999999
      vertex 12.866370614359173 3 -0.29999999999999999
      vertex 12.866370614359173 3 6.5831853071795861
    endloop
  endfacet
  facet normal 0 -1 0
    outer loop
      vertex -0.29999999999999999 3 -0.29999999999999999
      vertex 12.866370614359173 3 6.5831853071795861
      vertex -0.29999999999999999 3 6.5831853071795861
    endloop
  endfacet
  facet normal 0 1 0
    outer loop
      vertex -0.29999999999999999 4.2999999999999998 -0.29999999999999999
      vertex -0.29999999999999999 4.2999999999999998 6.5831853071795861
      vertex 12.866370614359173 4.2999999999999998 6.5831853071795861
    endloop
  endfacet
  facet normal 0 1 0
    outer loop
      vertex -0.29999999999999999 4.2999999999999998 -0.29999999999999999
      vertex 12.866370614359173 4.2999999999999998 6.5831853071795861
      vertex 12.866370614359173 4.2999999999999998 -0.29999999999999999
    endloop
  endfacet
  facet normal -1 0 0
    outer loop
      vertex -0.29999999999999999 3 -0.29999999999999999
      vertex -0.29999999999999999 3 6.5831853071795861
      vertex -0.29999999999999999 4.2999999999999998 6.5831853071795861
    endloop
  endfacet
  facet normal -1 0 0
    outer loop
      vertex -0.29999999999999999 3 -0.29999999999999999
      vertex -0.29999999999999999 4.2999999999999998 6.5831853071795861
      vertex -0.29999999999999999 4.2999999999999998 -0.29999999999999999
    endloop
  endfacet
  facet normal 1 0 0
    outer loop
      vertex 12.866370614359173 3 -0.29999999999999999
      vertex 12.866370614359173 4.2999999999999998 -0.29999999999999999
      vertex 12.866370614359173 4.2999999999999998 6.5831853071795861
    endloop
  endfacet
  facet normal 1 0 0
    outer loop
      vertex 12.866370614359173 3 -0.29999999999999999
      vertex 12.866370614359173 4.2999999999999998 6.5831853071795861
      vertex 12.866370614359173 3 6.5831853071795861
    endloop
  endfacet
endsolid slab
